<?xml version="1.0" encoding="utf-8"?>
<svg xmlns="http://www.w3.org/2000/svg" width="71" height="20" role="img" aria-label="Patreon">
  <title>Patreon</title>
  <filter id="blur">
    <feGaussianBlur in="SourceGraphic" stdDeviation="16"/>
  </filter>
  <linearGradient id="s" x2="0" y2="100%">
    <stop offset="0" stop-color="#bbb" stop-opacity=".1"/>
    <stop offset="1" stop-opacity=".1"/>
  </linearGradient>
  <clipPath id="r">
    <rect width="71" height="20" rx="3" fill="#fff"/>
  </clipPath>
  <g clip-path="url(#r)">
    <rect width="0" height="20" fill="#555"/>
    <rect x="0" width="71" height="20" fill="#f96854"/>
    <rect width="71" height="20" fill="url(#s)"/>
  </g>
  <g fill="#fff" text-anchor="middle" font-family="Verdana,Geneva,DejaVu Sans,sans-serif" text-rendering="geometricPrecision" font-size="110">
    <text aria-hidden="true" x="445" y="150" fill="#010101" fill-opacity=".80" filter="url(#blur)" transform="scale(.1)" textLength="430" style="white-space: pre;">Patreon</text>
    <text aria-hidden="true" x="445" y="150" fill="#010101" fill-opacity=".3" transform="scale(.1)" textLength="430" style="white-space: pre;">Patreon</text>
    <text x="445" y="140" transform="scale(.1)" fill="#fff" textLength="430" style="white-space: pre;">Patreon</text>
  </g>
  <title>Patreon</title>
  <path d="M 18.841 7.226 C 18.839 5.387 17.407 3.88 15.727 3.337 C 13.64 2.662 10.888 2.759 8.896 3.699 C 6.481 4.838 5.723 7.335 5.695 9.824 C 5.671 11.871 5.876 17.262 8.916 17.3 C 11.175 17.328 11.512 14.418 12.557 13.015 C 13.301 12.018 14.259 11.736 15.438 11.445 C 17.463 10.943 18.844 9.344 18.841 7.226 Z" style="stroke-width: 1; fill: rgb(255, 255, 255);"/>
</svg>