<?xml version="1.0" encoding="UTF-8" standalone="no"?>
<!DOCTYPE svg PUBLIC "-//W3C//DTD SVG 1.1//EN" "http://www.w3.org/Graphics/SVG/1.1/DTD/svg11.dtd">
<svg width="100%" height="100%" viewBox="0 0 36 36" version="1.1" xmlns="http://www.w3.org/2000/svg" xmlns:xlink="http://www.w3.org/1999/xlink" xml:space="preserve" xmlns:serif="http://www.serif.com/" style="fill-rule:evenodd;clip-rule:evenodd;stroke-linejoin:round;stroke-miterlimit:2;">
    <g transform="matrix(0.868791,0,0,0.868791,2.404925,2.288158)">
        <path d="M34.549,14.898C34.047,13.107 33.415,11.37 32.663,9.699C31.55,7.222 29.079,5.636 26.363,5.636L9.539,5.636C6.824,5.636 4.352,7.222 3.239,9.699C2.488,11.37 1.855,13.107 1.353,14.898C0.452,18.111 -0.03,21.499 -0.03,25C-0.03,25.649 -0.014,26.295 0.019,26.936C0.122,28.949 1.776,30.533 3.792,30.533C5.157,30.533 6.416,29.798 7.084,28.607C7.091,28.593 7.1,28.579 7.107,28.565C7.868,27.219 9.291,26.384 10.837,26.384L25.064,26.384C26.61,26.384 28.032,27.219 28.793,28.565C28.801,28.578 28.809,28.593 28.817,28.607C29.484,29.797 30.744,30.533 32.109,30.533C34.125,30.533 35.779,28.949 35.882,26.935C35.914,26.294 35.931,25.649 35.931,25C35.931,21.499 35.449,18.111 34.548,14.897L34.549,14.898Z" style="fill:none;fill-rule:nonzero;stroke:rgb(82,173,240);stroke-width:2.3px;"/>
    </g>
    <path d="M32.42,15.231C33.203,18.023 33.621,20.966 33.621,24.008C33.621,24.572 33.607,25.132 33.579,25.689C33.489,27.439 32.053,28.815 30.301,28.815C29.115,28.815 28.021,28.176 27.441,27.141L27.42,27.105C26.759,25.936 25.523,25.21 24.18,25.21L11.82,25.21C10.477,25.21 9.241,25.936 8.58,27.105L8.559,27.142C7.979,28.176 6.885,28.815 5.699,28.815C3.948,28.815 2.511,27.439 2.421,25.69C2.393,25.133 2.379,24.572 2.379,24.008C2.379,20.967 2.798,18.023 3.581,15.231C4.017,13.675 4.566,12.167 5.219,10.714C6.186,8.563 8.333,7.185 10.692,7.185L25.309,7.185C27.668,7.185 29.815,8.563 30.783,10.714C31.435,12.167 31.984,13.675 32.42,15.231ZM14.3,19.023C14.354,18.682 14.121,18.362 13.78,18.308L10.267,17.752C9.926,17.698 9.606,17.93 9.552,18.271L8.996,21.784C8.942,22.125 9.174,22.445 9.515,22.499L13.028,23.056C13.369,23.11 13.689,22.877 13.743,22.536L14.3,19.023ZM26.486,22.499C26.827,22.445 27.059,22.125 27.005,21.784L26.449,18.271C26.395,17.93 26.075,17.698 25.734,17.752L22.221,18.308C21.879,18.362 21.647,18.682 21.701,19.023L22.258,22.536C22.312,22.877 22.632,23.11 22.973,23.056L26.486,22.499Z" style="fill:rgb(11,16,22);"/>
    <path d="M15.238,19.171L14.682,22.684L14.601,22.992L14.463,23.271L14.278,23.513L14.052,23.712L13.793,23.865L13.505,23.967L13.198,24.012L12.88,23.994L9.367,23.437L9.059,23.356L8.78,23.219L8.539,23.034L8.339,22.808L8.186,22.548L8.084,22.261L8.039,21.954L8.057,21.636L8.614,18.123L8.695,17.815L8.832,17.536L9.018,17.295L9.243,17.095L9.503,16.942L9.79,16.84L10.098,16.795L10.415,16.813L13.928,17.37L14.236,17.451L14.515,17.588L14.757,17.774L14.956,17.999L15.109,18.259L15.211,18.546L15.256,18.853L15.238,19.171ZM14.3,19.023C14.354,18.682 14.121,18.362 13.78,18.308L10.267,17.752C9.926,17.698 9.606,17.93 9.552,18.271L8.996,21.784C8.942,22.125 9.174,22.445 9.515,22.499L13.028,23.056C13.369,23.11 13.689,22.877 13.743,22.536L14.3,19.023ZM26.634,23.437L23.121,23.994L22.803,24.012L22.496,23.967L22.209,23.866L21.949,23.713L21.723,23.513L21.538,23.271L21.4,22.992L21.319,22.685L20.763,19.171L20.745,18.854L20.79,18.546L20.891,18.259L21.044,18L21.244,17.774L21.486,17.588L21.765,17.451L22.072,17.37L25.586,16.813L25.903,16.795L26.211,16.84L26.498,16.942L26.758,17.095L26.983,17.294L27.169,17.536L27.306,17.815L27.387,18.122L27.944,21.636L27.962,21.954L27.917,22.261L27.815,22.548L27.662,22.808L27.463,23.034L27.221,23.219L26.942,23.356L26.634,23.437ZM26.486,22.499C26.827,22.445 27.059,22.125 27.005,21.784L26.449,18.271C26.395,17.93 26.075,17.698 25.734,17.752L22.221,18.308C21.879,18.362 21.647,18.682 21.701,19.023L22.258,22.536C22.312,22.877 22.632,23.11 22.973,23.056L26.486,22.499Z" style="fill:rgb(82,173,240);"/>
    <path d="M14.3,19.023L13.743,22.536C13.689,22.877 13.369,23.11 13.028,23.056L9.515,22.499C9.174,22.445 8.942,22.125 8.996,21.784L9.552,18.271C9.606,17.93 9.926,17.698 10.267,17.752L13.78,18.308C14.121,18.362 14.354,18.682 14.3,19.023ZM26.486,22.499L22.973,23.056C22.632,23.11 22.312,22.877 22.258,22.536L21.701,19.023C21.647,18.682 21.879,18.362 22.221,18.308L25.734,17.752C26.075,17.698 26.395,17.93 26.449,18.271L27.005,21.784C27.059,22.125 26.827,22.445 26.486,22.499Z" style="fill:rgb(82,173,240);stroke:rgb(82,173,240);stroke-width:0.4px;"/>
    <g transform="matrix(1,0,0,1,0,-0.584713)">
        <path d="M11.647,10.386C12.975,10.386 14.051,11.462 14.051,12.789C14.051,14.117 12.975,15.193 11.647,15.193C10.32,15.193 9.244,14.117 9.244,12.789C9.244,11.462 10.32,10.386 11.647,10.386Z" style="fill:none;fill-rule:nonzero;stroke:rgb(82,173,240);stroke-width:0.6px;"/>
        <path d="M11.647,10.386C12.975,10.386 14.051,11.462 14.051,12.789C14.051,14.117 12.975,15.193 11.647,15.193C10.32,15.193 9.244,14.117 9.244,12.789C9.244,11.462 10.32,10.386 11.647,10.386Z" style="fill:rgb(82,173,240);fill-rule:nonzero;"/>
    </g>
    <g transform="matrix(0.868875,0,0,0.868875,3.193116,1.209429)">
        <path d="M24.354,9.05C25.017,9.05 25.555,9.588 25.555,10.251C25.555,10.915 25.017,11.453 24.354,11.453C23.69,11.453 23.152,10.915 23.152,10.251C23.152,9.588 23.69,9.05 24.354,9.05ZM25.555,15.058C25.555,15.722 25.017,16.26 24.354,16.26C23.69,16.26 23.152,15.722 23.152,15.058C23.152,14.394 23.69,13.856 24.354,13.856C25.017,13.856 25.555,14.394 25.555,15.058ZM20.748,12.655C20.748,11.991 21.286,11.453 21.95,11.453C22.614,11.453 23.152,11.991 23.152,12.655C23.152,13.318 22.614,13.856 21.95,13.856C21.286,13.856 20.748,13.318 20.748,12.655ZM26.757,13.856C26.093,13.856 25.555,13.318 25.555,12.655C25.555,11.991 26.093,11.453 26.757,11.453C27.421,11.453 27.959,11.991 27.959,12.655C27.959,13.318 27.421,13.856 26.757,13.856Z" style="fill:none;stroke:rgb(82,173,240);stroke-width:0.52px;"/>
        <path d="M24.354,9.05C25.017,9.05 25.555,9.588 25.555,10.251C25.555,10.915 25.017,11.453 24.354,11.453C23.69,11.453 23.152,10.915 23.152,10.251C23.152,9.588 23.69,9.05 24.354,9.05ZM25.555,15.058C25.555,15.722 25.017,16.26 24.354,16.26C23.69,16.26 23.152,15.722 23.152,15.058C23.152,14.394 23.69,13.856 24.354,13.856C25.017,13.856 25.555,14.394 25.555,15.058ZM20.748,12.655C20.748,11.991 21.286,11.453 21.95,11.453C22.614,11.453 23.152,11.991 23.152,12.655C23.152,13.318 22.614,13.856 21.95,13.856C21.286,13.856 20.748,13.318 20.748,12.655ZM26.757,13.856C26.093,13.856 25.555,13.318 25.555,12.655C25.555,11.991 26.093,11.453 26.757,11.453C27.421,11.453 27.959,11.991 27.959,12.655C27.959,13.318 27.421,13.856 26.757,13.856Z" style="fill:rgb(82,173,240);"/>
    </g>
</svg>
